<svg xmlns="http://www.w3.org/2000/svg" xmlns:xlink="http://www.w3.org/1999/xlink" width="155" zoomAndPan="magnify" viewBox="0 0 116.25 49.499998" height="66" preserveAspectRatio="xMidYMid meet" version="1.0"><defs><g/><clipPath id="710a5828b4"><path d="M 97 12 L 108 12 L 108 23 L 97 23 Z M 97 12 " clip-rule="nonzero"/></clipPath><clipPath id="2c84aee6e8"><path d="M 95.71875 14.210938 L 102.6875 7.769531 L 112.097656 17.953125 L 105.128906 24.390625 Z M 95.71875 14.210938 " clip-rule="nonzero"/></clipPath><clipPath id="bce31ca89a"><path d="M 95.71875 14.210938 L 102.6875 7.769531 L 112.097656 17.953125 L 105.128906 24.390625 Z M 95.71875 14.210938 " clip-rule="nonzero"/></clipPath><clipPath id="0585a93f3d"><path d="M 102 8 L 113 8 L 113 18 L 102 18 Z M 102 8 " clip-rule="nonzero"/></clipPath><clipPath id="87fd0bae95"><path d="M 100.671875 9.628906 L 107.640625 3.191406 L 117.050781 13.375 L 110.085938 19.8125 Z M 100.671875 9.628906 " clip-rule="nonzero"/></clipPath><clipPath id="d969da7fce"><path d="M 100.671875 9.628906 L 107.640625 3.191406 L 117.050781 13.375 L 110.085938 19.8125 Z M 100.671875 9.628906 " clip-rule="nonzero"/></clipPath></defs><g clip-path="url(#710a5828b4)"><g clip-path="url(#2c84aee6e8)"><g clip-path="url(#bce31ca89a)"><path fill="#ffffff" d="M 107.414062 13.070312 L 99.050781 12.699219 C 97.4375 12.625 97.164062 15.773438 99.078125 15.824219 L 104.28125 15.964844 L 103.882812 21.203125 C 103.761719 22.796875 106.871094 22.964844 106.960938 21.34375 Z M 107.414062 13.070312 " fill-opacity="1" fill-rule="nonzero"/></g></g></g><g clip-path="url(#0585a93f3d)"><g clip-path="url(#87fd0bae95)"><g clip-path="url(#d969da7fce)"><path fill="#ffffff" d="M 112.367188 8.492188 L 104.003906 8.121094 C 102.390625 8.046875 102.117188 11.195312 104.03125 11.246094 L 109.234375 11.386719 L 108.835938 16.621094 C 108.714844 18.21875 111.824219 18.386719 111.914062 16.765625 Z M 112.367188 8.492188 " fill-opacity="1" fill-rule="nonzero"/></g></g></g><g fill="#ffffff" fill-opacity="1"><g transform="translate(8.381381, 29.512368)"><g><path d="M 14.109375 -15.4375 C 14.628906 -15.4375 15.046875 -15.289062 15.359375 -15 C 15.671875 -14.707031 15.828125 -14.328125 15.828125 -13.859375 L 15.828125 -1.578125 C 15.828125 -1.109375 15.671875 -0.726562 15.359375 -0.4375 C 15.046875 -0.144531 14.628906 0 14.109375 0 C 13.597656 0 13.203125 -0.113281 12.921875 -0.34375 C 12.640625 -0.582031 12.46875 -0.894531 12.40625 -1.28125 C 11.71875 -0.726562 10.945312 -0.328125 10.09375 -0.078125 C 9.25 0.171875 8.441406 0.296875 7.671875 0.296875 C 6.210938 0.296875 4.953125 -0.0351562 3.890625 -0.703125 C 2.835938 -1.367188 2.023438 -2.304688 1.453125 -3.515625 C 0.890625 -4.734375 0.609375 -6.148438 0.609375 -7.765625 C 0.609375 -9.335938 0.921875 -10.71875 1.546875 -11.90625 C 2.171875 -13.101562 3.046875 -14.039062 4.171875 -14.71875 C 5.296875 -15.394531 6.59375 -15.734375 8.0625 -15.734375 C 8.707031 -15.734375 9.425781 -15.613281 10.21875 -15.375 C 11.007812 -15.132812 11.738281 -14.75 12.40625 -14.21875 C 12.488281 -14.582031 12.671875 -14.875 12.953125 -15.09375 C 13.234375 -15.320312 13.617188 -15.4375 14.109375 -15.4375 Z M 8.03125 -2.765625 C 8.925781 -2.765625 9.785156 -2.957031 10.609375 -3.34375 C 11.441406 -3.738281 12.03125 -4.320312 12.375 -5.09375 L 12.375 -10.34375 C 11.988281 -11.09375 11.410156 -11.664062 10.640625 -12.0625 C 9.878906 -12.46875 9.101562 -12.671875 8.3125 -12.671875 C 7.039062 -12.671875 6.015625 -12.207031 5.234375 -11.28125 C 4.453125 -10.351562 4.0625 -9.171875 4.0625 -7.734375 C 4.0625 -6.234375 4.425781 -5.03125 5.15625 -4.125 C 5.882812 -3.21875 6.84375 -2.765625 8.03125 -2.765625 Z M 8.03125 -2.765625 "/></g></g></g><g fill="#ffffff" fill-opacity="1"><g transform="translate(25.906132, 29.512368)"><g><path d="M 8.1875 -15.4375 C 8.726562 -15.4375 9.160156 -15.316406 9.484375 -15.078125 C 9.816406 -14.847656 9.984375 -14.472656 9.984375 -13.953125 C 9.984375 -13.460938 9.816406 -13.078125 9.484375 -12.796875 C 9.160156 -12.515625 8.726562 -12.375 8.1875 -12.375 C 6.914062 -12.375 6.019531 -11.914062 5.5 -11 C 4.988281 -10.09375 4.734375 -8.863281 4.734375 -7.3125 L 4.734375 -1.546875 C 4.734375 -1.097656 4.570312 -0.726562 4.25 -0.4375 C 3.925781 -0.144531 3.53125 0 3.0625 0 C 2.539062 0 2.113281 -0.144531 1.78125 -0.4375 C 1.457031 -0.726562 1.296875 -1.097656 1.296875 -1.546875 L 1.296875 -13.890625 C 1.296875 -14.378906 1.484375 -14.757812 1.859375 -15.03125 C 2.234375 -15.300781 2.632812 -15.4375 3.0625 -15.4375 C 3.488281 -15.4375 3.875 -15.304688 4.21875 -15.046875 C 4.5625 -14.785156 4.734375 -14.398438 4.734375 -13.890625 L 4.734375 -13.703125 C 5.171875 -14.296875 5.679688 -14.734375 6.265625 -15.015625 C 6.859375 -15.296875 7.5 -15.4375 8.1875 -15.4375 Z M 8.1875 -15.4375 "/></g></g></g><g fill="#ffffff" fill-opacity="1"><g transform="translate(34.9716, 29.512368)"><g><path d="M 8.671875 -2.703125 C 9.253906 -2.703125 9.828125 -2.78125 10.390625 -2.9375 C 10.960938 -3.101562 11.492188 -3.378906 11.984375 -3.765625 C 12.441406 -4.179688 12.894531 -4.375 13.34375 -4.34375 C 13.789062 -4.320312 14.160156 -4.160156 14.453125 -3.859375 C 14.742188 -3.566406 14.890625 -3.203125 14.890625 -2.765625 C 14.890625 -2.335938 14.675781 -1.921875 14.25 -1.515625 C 13.539062 -0.828125 12.703125 -0.347656 11.734375 -0.078125 C 10.765625 0.191406 9.773438 0.316406 8.765625 0.296875 C 7.191406 0.296875 5.800781 -0.0234375 4.59375 -0.671875 C 3.394531 -1.316406 2.457031 -2.210938 1.78125 -3.359375 C 1.101562 -4.515625 0.765625 -5.851562 0.765625 -7.375 C 0.765625 -9.03125 1.085938 -10.484375 1.734375 -11.734375 C 2.378906 -12.992188 3.289062 -13.972656 4.46875 -14.671875 C 5.65625 -15.378906 7.054688 -15.734375 8.671875 -15.734375 C 10.285156 -15.734375 11.660156 -15.40625 12.796875 -14.75 C 13.929688 -14.09375 14.796875 -13.171875 15.390625 -11.984375 C 15.984375 -10.804688 16.28125 -9.429688 16.28125 -7.859375 C 16.28125 -7.347656 16.175781 -6.914062 15.96875 -6.5625 C 15.769531 -6.207031 15.238281 -6.03125 14.375 -6.03125 L 4.28125 -6.03125 C 4.5625 -5.039062 5.09375 -4.238281 5.875 -3.625 C 6.664062 -3.007812 7.597656 -2.703125 8.671875 -2.703125 Z M 8.703125 -12.734375 C 7.523438 -12.734375 6.539062 -12.363281 5.75 -11.625 C 4.96875 -10.894531 4.46875 -9.929688 4.25 -8.734375 L 13.078125 -8.734375 C 12.972656 -9.929688 12.578125 -10.894531 11.890625 -11.625 C 11.203125 -12.363281 10.140625 -12.734375 8.703125 -12.734375 Z M 8.703125 -12.734375 "/></g></g></g><g fill="#ffffff" fill-opacity="1"><g transform="translate(52.587309, 29.512368)"><g><path d="M 8.34375 -2.875 C 8.800781 -3.144531 9.21875 -3.238281 9.59375 -3.15625 C 9.96875 -3.070312 10.269531 -2.894531 10.5 -2.625 C 10.738281 -2.351562 10.859375 -2.035156 10.859375 -1.671875 C 10.859375 -1.410156 10.773438 -1.144531 10.609375 -0.875 C 10.453125 -0.613281 10.203125 -0.394531 9.859375 -0.21875 C 9.410156 0.03125 9.003906 0.175781 8.640625 0.21875 C 8.273438 0.269531 7.851562 0.296875 7.375 0.296875 C 6.050781 0.296875 5.035156 0.0234375 4.328125 -0.515625 C 3.628906 -1.054688 3.144531 -1.757812 2.875 -2.625 C 2.613281 -3.5 2.484375 -4.421875 2.484375 -5.390625 L 2.484375 -12.5625 L 1.328125 -12.5625 C 0.765625 -12.5625 0.347656 -12.710938 0.078125 -13.015625 C -0.191406 -13.316406 -0.328125 -13.640625 -0.328125 -13.984375 C -0.328125 -14.347656 -0.1875 -14.679688 0.09375 -14.984375 C 0.375 -15.285156 0.785156 -15.4375 1.328125 -15.4375 L 2.484375 -15.4375 L 2.484375 -18.046875 C 2.484375 -18.566406 2.65625 -18.957031 3 -19.21875 C 3.34375 -19.488281 3.738281 -19.625 4.1875 -19.625 C 4.613281 -19.625 5.003906 -19.488281 5.359375 -19.21875 C 5.722656 -18.957031 5.90625 -18.566406 5.90625 -18.046875 L 5.90625 -15.4375 L 8.28125 -15.4375 C 8.800781 -15.4375 9.203125 -15.285156 9.484375 -14.984375 C 9.773438 -14.679688 9.921875 -14.347656 9.921875 -13.984375 C 9.921875 -13.617188 9.773438 -13.289062 9.484375 -13 C 9.203125 -12.707031 8.800781 -12.5625 8.28125 -12.5625 L 5.90625 -12.5625 L 5.90625 -5.390625 C 5.90625 -4.953125 5.9375 -4.523438 6 -4.109375 C 6.0625 -3.691406 6.195312 -3.347656 6.40625 -3.078125 C 6.625 -2.804688 6.945312 -2.671875 7.375 -2.671875 C 7.53125 -2.671875 7.703125 -2.695312 7.890625 -2.75 C 8.085938 -2.800781 8.238281 -2.84375 8.34375 -2.875 Z M 8.34375 -2.875 "/></g></g></g><g fill="#ffffff" fill-opacity="1"><g transform="translate(63.108138, 29.512368)"><g><path d="M 8.671875 -2.703125 C 9.253906 -2.703125 9.828125 -2.78125 10.390625 -2.9375 C 10.960938 -3.101562 11.492188 -3.378906 11.984375 -3.765625 C 12.441406 -4.179688 12.894531 -4.375 13.34375 -4.34375 C 13.789062 -4.320312 14.160156 -4.160156 14.453125 -3.859375 C 14.742188 -3.566406 14.890625 -3.203125 14.890625 -2.765625 C 14.890625 -2.335938 14.675781 -1.921875 14.25 -1.515625 C 13.539062 -0.828125 12.703125 -0.347656 11.734375 -0.078125 C 10.765625 0.191406 9.773438 0.316406 8.765625 0.296875 C 7.191406 0.296875 5.800781 -0.0234375 4.59375 -0.671875 C 3.394531 -1.316406 2.457031 -2.210938 1.78125 -3.359375 C 1.101562 -4.515625 0.765625 -5.851562 0.765625 -7.375 C 0.765625 -9.03125 1.085938 -10.484375 1.734375 -11.734375 C 2.378906 -12.992188 3.289062 -13.972656 4.46875 -14.671875 C 5.65625 -15.378906 7.054688 -15.734375 8.671875 -15.734375 C 10.285156 -15.734375 11.660156 -15.40625 12.796875 -14.75 C 13.929688 -14.09375 14.796875 -13.171875 15.390625 -11.984375 C 15.984375 -10.804688 16.28125 -9.429688 16.28125 -7.859375 C 16.28125 -7.347656 16.175781 -6.914062 15.96875 -6.5625 C 15.769531 -6.207031 15.238281 -6.03125 14.375 -6.03125 L 4.28125 -6.03125 C 4.5625 -5.039062 5.09375 -4.238281 5.875 -3.625 C 6.664062 -3.007812 7.597656 -2.703125 8.671875 -2.703125 Z M 8.703125 -12.734375 C 7.523438 -12.734375 6.539062 -12.363281 5.75 -11.625 C 4.96875 -10.894531 4.46875 -9.929688 4.25 -8.734375 L 13.078125 -8.734375 C 12.972656 -9.929688 12.578125 -10.894531 11.890625 -11.625 C 11.203125 -12.363281 10.140625 -12.734375 8.703125 -12.734375 Z M 8.703125 -12.734375 "/></g></g></g><g fill="#ffffff" fill-opacity="1"><g transform="translate(80.723847, 29.512368)"><g><path d="M 8.671875 -2.703125 C 9.253906 -2.703125 9.828125 -2.78125 10.390625 -2.9375 C 10.960938 -3.101562 11.492188 -3.378906 11.984375 -3.765625 C 12.441406 -4.179688 12.894531 -4.375 13.34375 -4.34375 C 13.789062 -4.320312 14.160156 -4.160156 14.453125 -3.859375 C 14.742188 -3.566406 14.890625 -3.203125 14.890625 -2.765625 C 14.890625 -2.335938 14.675781 -1.921875 14.25 -1.515625 C 13.539062 -0.828125 12.703125 -0.347656 11.734375 -0.078125 C 10.765625 0.191406 9.773438 0.316406 8.765625 0.296875 C 7.191406 0.296875 5.800781 -0.0234375 4.59375 -0.671875 C 3.394531 -1.316406 2.457031 -2.210938 1.78125 -3.359375 C 1.101562 -4.515625 0.765625 -5.851562 0.765625 -7.375 C 0.765625 -9.03125 1.085938 -10.484375 1.734375 -11.734375 C 2.378906 -12.992188 3.289062 -13.972656 4.46875 -14.671875 C 5.65625 -15.378906 7.054688 -15.734375 8.671875 -15.734375 C 10.285156 -15.734375 11.660156 -15.40625 12.796875 -14.75 C 13.929688 -14.09375 14.796875 -13.171875 15.390625 -11.984375 C 15.984375 -10.804688 16.28125 -9.429688 16.28125 -7.859375 C 16.28125 -7.347656 16.175781 -6.914062 15.96875 -6.5625 C 15.769531 -6.207031 15.238281 -6.03125 14.375 -6.03125 L 4.28125 -6.03125 C 4.5625 -5.039062 5.09375 -4.238281 5.875 -3.625 C 6.664062 -3.007812 7.597656 -2.703125 8.671875 -2.703125 Z M 8.703125 -12.734375 C 7.523438 -12.734375 6.539062 -12.363281 5.75 -11.625 C 4.96875 -10.894531 4.46875 -9.929688 4.25 -8.734375 L 13.078125 -8.734375 C 12.972656 -9.929688 12.578125 -10.894531 11.890625 -11.625 C 11.203125 -12.363281 10.140625 -12.734375 8.703125 -12.734375 Z M 8.703125 -12.734375 "/></g></g></g><g fill="#ffffff" fill-opacity="1"><g transform="translate(7.873326, 40.234063)"><g><path d="M 6.3125 -4.828125 C 6.851562 -4.828125 7.296875 -4.65625 7.640625 -4.3125 C 7.984375 -3.96875 8.15625 -3.453125 8.15625 -2.765625 L 8.15625 0 L 7.765625 0 L 7.765625 -2.75 C 7.765625 -3.3125 7.628906 -3.738281 7.359375 -4.03125 C 7.085938 -4.332031 6.71875 -4.484375 6.25 -4.484375 C 5.757812 -4.484375 5.363281 -4.316406 5.0625 -3.984375 C 4.769531 -3.648438 4.625 -3.160156 4.625 -2.515625 L 4.625 0 L 4.25 0 L 4.25 -2.75 C 4.25 -3.3125 4.113281 -3.738281 3.84375 -4.03125 C 3.570312 -4.332031 3.203125 -4.484375 2.734375 -4.484375 C 2.242188 -4.484375 1.847656 -4.316406 1.546875 -3.984375 C 1.253906 -3.648438 1.109375 -3.160156 1.109375 -2.515625 L 1.109375 0 L 0.71875 0 L 0.71875 -4.734375 L 1.109375 -4.734375 L 1.109375 -3.703125 C 1.242188 -4.078125 1.457031 -4.359375 1.75 -4.546875 C 2.050781 -4.734375 2.398438 -4.828125 2.796875 -4.828125 C 3.222656 -4.828125 3.59375 -4.710938 3.90625 -4.484375 C 4.21875 -4.265625 4.429688 -3.9375 4.546875 -3.5 C 4.648438 -3.9375 4.863281 -4.265625 5.1875 -4.484375 C 5.507812 -4.710938 5.882812 -4.828125 6.3125 -4.828125 Z M 6.3125 -4.828125 "/></g></g></g><g fill="#ffffff" fill-opacity="1"><g transform="translate(16.380059, 40.234063)"><g><path d="M 0.46875 -2.375 C 0.46875 -2.863281 0.566406 -3.289062 0.765625 -3.65625 C 0.960938 -4.019531 1.234375 -4.300781 1.578125 -4.5 C 1.921875 -4.695312 2.3125 -4.796875 2.75 -4.796875 C 3.25 -4.796875 3.671875 -4.671875 4.015625 -4.421875 C 4.367188 -4.179688 4.617188 -3.875 4.765625 -3.5 L 4.765625 -4.734375 L 5.15625 -4.734375 L 5.15625 0 L 4.765625 0 L 4.765625 -1.25 C 4.617188 -0.863281 4.367188 -0.546875 4.015625 -0.296875 C 3.671875 -0.0546875 3.25 0.0625 2.75 0.0625 C 2.3125 0.0625 1.921875 -0.0351562 1.578125 -0.234375 C 1.234375 -0.429688 0.960938 -0.710938 0.765625 -1.078125 C 0.566406 -1.453125 0.46875 -1.882812 0.46875 -2.375 Z M 4.765625 -2.375 C 4.765625 -2.78125 4.675781 -3.140625 4.5 -3.453125 C 4.332031 -3.773438 4.097656 -4.019531 3.796875 -4.1875 C 3.503906 -4.363281 3.175781 -4.453125 2.8125 -4.453125 C 2.425781 -4.453125 2.085938 -4.367188 1.796875 -4.203125 C 1.503906 -4.035156 1.273438 -3.796875 1.109375 -3.484375 C 0.953125 -3.171875 0.875 -2.800781 0.875 -2.375 C 0.875 -1.9375 0.953125 -1.5625 1.109375 -1.25 C 1.273438 -0.9375 1.503906 -0.695312 1.796875 -0.53125 C 2.085938 -0.363281 2.425781 -0.28125 2.8125 -0.28125 C 3.175781 -0.28125 3.503906 -0.363281 3.796875 -0.53125 C 4.097656 -0.707031 4.332031 -0.953125 4.5 -1.265625 C 4.675781 -1.585938 4.765625 -1.957031 4.765625 -2.375 Z M 4.765625 -2.375 "/></g></g></g><g fill="#ffffff" fill-opacity="1"><g transform="translate(21.920314, 40.234063)"><g><path d="M 1.109375 -3.75 C 1.222656 -4.101562 1.425781 -4.367188 1.71875 -4.546875 C 2.019531 -4.734375 2.398438 -4.828125 2.859375 -4.828125 L 2.859375 -4.421875 L 2.734375 -4.421875 C 2.265625 -4.421875 1.875 -4.285156 1.5625 -4.015625 C 1.257812 -3.753906 1.109375 -3.328125 1.109375 -2.734375 L 1.109375 0 L 0.71875 0 L 0.71875 -4.734375 L 1.109375 -4.734375 Z M 1.109375 -3.75 "/></g></g></g><g fill="#ffffff" fill-opacity="1"><g transform="translate(24.642408, 40.234063)"><g><path d="M 3.171875 0 L 1.109375 -2.171875 L 1.109375 0 L 0.71875 0 L 0.71875 -6.453125 L 1.109375 -6.453125 L 1.109375 -2.59375 L 3.140625 -4.734375 L 3.6875 -4.734375 L 1.390625 -2.375 L 3.71875 0 Z M 3.171875 0 "/></g></g></g><g fill="#ffffff" fill-opacity="1"><g transform="translate(28.123571, 40.234063)"><g><path d="M 4.984375 -2.6875 C 4.984375 -2.476562 4.976562 -2.320312 4.96875 -2.21875 L 0.875 -2.21875 C 0.882812 -1.789062 0.972656 -1.429688 1.140625 -1.140625 C 1.316406 -0.847656 1.546875 -0.628906 1.828125 -0.484375 C 2.117188 -0.335938 2.429688 -0.265625 2.765625 -0.265625 C 3.234375 -0.265625 3.625 -0.378906 3.9375 -0.609375 C 4.25 -0.835938 4.445312 -1.148438 4.53125 -1.546875 L 4.9375 -1.546875 C 4.84375 -1.066406 4.601562 -0.675781 4.21875 -0.375 C 3.84375 -0.0820312 3.359375 0.0625 2.765625 0.0625 C 2.328125 0.0625 1.929688 -0.03125 1.578125 -0.21875 C 1.234375 -0.414062 0.960938 -0.695312 0.765625 -1.0625 C 0.566406 -1.4375 0.46875 -1.875 0.46875 -2.375 C 0.46875 -2.863281 0.566406 -3.289062 0.765625 -3.65625 C 0.960938 -4.03125 1.234375 -4.3125 1.578125 -4.5 C 1.921875 -4.695312 2.316406 -4.796875 2.765625 -4.796875 C 3.222656 -4.796875 3.617188 -4.695312 3.953125 -4.5 C 4.285156 -4.3125 4.539062 -4.054688 4.71875 -3.734375 C 4.894531 -3.410156 4.984375 -3.0625 4.984375 -2.6875 Z M 4.59375 -2.53125 C 4.601562 -2.957031 4.523438 -3.3125 4.359375 -3.59375 C 4.191406 -3.882812 3.96875 -4.101562 3.6875 -4.25 C 3.40625 -4.394531 3.097656 -4.46875 2.765625 -4.46875 C 2.429688 -4.46875 2.125 -4.394531 1.84375 -4.25 C 1.5625 -4.101562 1.332031 -3.882812 1.15625 -3.59375 C 0.976562 -3.3125 0.882812 -2.957031 0.875 -2.53125 Z M 4.59375 -2.53125 "/></g></g></g><g fill="#ffffff" fill-opacity="1"><g transform="translate(33.245026, 40.234063)"><g><path d="M 1.296875 -4.390625 L 1.296875 -1.265625 C 1.296875 -0.910156 1.359375 -0.664062 1.484375 -0.53125 C 1.617188 -0.40625 1.847656 -0.34375 2.171875 -0.34375 L 2.703125 -0.34375 L 2.703125 0 L 2.109375 0 C 1.691406 0 1.382812 -0.09375 1.1875 -0.28125 C 1 -0.476562 0.90625 -0.804688 0.90625 -1.265625 L 0.90625 -4.390625 L 0.1875 -4.390625 L 0.1875 -4.734375 L 0.90625 -4.734375 L 0.90625 -5.9375 L 1.296875 -5.9375 L 1.296875 -4.734375 L 2.703125 -4.734375 L 2.703125 -4.390625 Z M 1.296875 -4.390625 "/></g></g></g><g fill="#ffffff" fill-opacity="1"><g transform="translate(35.940945, 40.234063)"><g><path d="M 0.921875 -5.796875 C 0.828125 -5.796875 0.742188 -5.820312 0.671875 -5.875 C 0.609375 -5.9375 0.578125 -6.019531 0.578125 -6.125 C 0.578125 -6.226562 0.609375 -6.3125 0.671875 -6.375 C 0.742188 -6.4375 0.828125 -6.46875 0.921875 -6.46875 C 1.015625 -6.46875 1.09375 -6.4375 1.15625 -6.375 C 1.21875 -6.3125 1.25 -6.226562 1.25 -6.125 C 1.25 -6.019531 1.21875 -5.9375 1.15625 -5.875 C 1.09375 -5.820312 1.015625 -5.796875 0.921875 -5.796875 Z M 1.109375 -4.734375 L 1.109375 0 L 0.71875 0 L 0.71875 -4.734375 Z M 1.109375 -4.734375 "/></g></g></g><g fill="#ffffff" fill-opacity="1"><g transform="translate(37.441544, 40.234063)"><g><path d="M 2.84375 -4.828125 C 3.414062 -4.828125 3.878906 -4.65625 4.234375 -4.3125 C 4.585938 -3.96875 4.765625 -3.453125 4.765625 -2.765625 L 4.765625 0 L 4.375 0 L 4.375 -2.75 C 4.375 -3.3125 4.226562 -3.738281 3.9375 -4.03125 C 3.65625 -4.332031 3.273438 -4.484375 2.796875 -4.484375 C 2.273438 -4.484375 1.863281 -4.320312 1.5625 -4 C 1.257812 -3.675781 1.109375 -3.191406 1.109375 -2.546875 L 1.109375 0 L 0.71875 0 L 0.71875 -4.734375 L 1.109375 -4.734375 L 1.109375 -3.734375 C 1.242188 -4.085938 1.460938 -4.359375 1.765625 -4.546875 C 2.078125 -4.734375 2.4375 -4.828125 2.84375 -4.828125 Z M 2.84375 -4.828125 "/></g></g></g><g fill="#ffffff" fill-opacity="1"><g transform="translate(42.54555, 40.234063)"><g><path d="M 2.75 -4.796875 C 3.25 -4.796875 3.671875 -4.675781 4.015625 -4.4375 C 4.367188 -4.195312 4.617188 -3.882812 4.765625 -3.5 L 4.765625 -4.734375 L 5.15625 -4.734375 L 5.15625 0.140625 C 5.15625 0.578125 5.054688 0.957031 4.859375 1.28125 C 4.671875 1.613281 4.410156 1.867188 4.078125 2.046875 C 3.753906 2.222656 3.394531 2.3125 3 2.3125 C 2.40625 2.3125 1.910156 2.171875 1.515625 1.890625 C 1.128906 1.609375 0.878906 1.222656 0.765625 0.734375 L 1.15625 0.734375 C 1.269531 1.117188 1.484375 1.421875 1.796875 1.640625 C 2.117188 1.867188 2.519531 1.984375 3 1.984375 C 3.332031 1.984375 3.628906 1.90625 3.890625 1.75 C 4.160156 1.601562 4.375 1.390625 4.53125 1.109375 C 4.6875 0.835938 4.765625 0.515625 4.765625 0.140625 L 4.765625 -1.234375 C 4.617188 -0.859375 4.367188 -0.546875 4.015625 -0.296875 C 3.671875 -0.0546875 3.25 0.0625 2.75 0.0625 C 2.3125 0.0625 1.921875 -0.0351562 1.578125 -0.234375 C 1.234375 -0.429688 0.960938 -0.710938 0.765625 -1.078125 C 0.566406 -1.453125 0.46875 -1.882812 0.46875 -2.375 C 0.46875 -2.863281 0.566406 -3.289062 0.765625 -3.65625 C 0.960938 -4.019531 1.234375 -4.300781 1.578125 -4.5 C 1.921875 -4.695312 2.3125 -4.796875 2.75 -4.796875 Z M 4.765625 -2.375 C 4.765625 -2.78125 4.675781 -3.140625 4.5 -3.453125 C 4.332031 -3.773438 4.097656 -4.019531 3.796875 -4.1875 C 3.503906 -4.363281 3.175781 -4.453125 2.8125 -4.453125 C 2.425781 -4.453125 2.085938 -4.367188 1.796875 -4.203125 C 1.503906 -4.035156 1.273438 -3.796875 1.109375 -3.484375 C 0.953125 -3.171875 0.875 -2.800781 0.875 -2.375 C 0.875 -1.9375 0.953125 -1.5625 1.109375 -1.25 C 1.273438 -0.9375 1.503906 -0.695312 1.796875 -0.53125 C 2.085938 -0.363281 2.425781 -0.28125 2.8125 -0.28125 C 3.175781 -0.28125 3.503906 -0.363281 3.796875 -0.53125 C 4.097656 -0.707031 4.332031 -0.953125 4.5 -1.265625 C 4.675781 -1.585938 4.765625 -1.957031 4.765625 -2.375 Z M 4.765625 -2.375 "/></g></g></g><g fill="#ffffff" fill-opacity="1"><g transform="translate(48.085805, 40.234063)"><g/></g></g><g fill="#ffffff" fill-opacity="1"><g transform="translate(50.214602, 40.234063)"><g><path d="M 1.296875 -4.390625 L 1.296875 -1.265625 C 1.296875 -0.910156 1.359375 -0.664062 1.484375 -0.53125 C 1.617188 -0.40625 1.847656 -0.34375 2.171875 -0.34375 L 2.703125 -0.34375 L 2.703125 0 L 2.109375 0 C 1.691406 0 1.382812 -0.09375 1.1875 -0.28125 C 1 -0.476562 0.90625 -0.804688 0.90625 -1.265625 L 0.90625 -4.390625 L 0.1875 -4.390625 L 0.1875 -4.734375 L 0.90625 -4.734375 L 0.90625 -5.9375 L 1.296875 -5.9375 L 1.296875 -4.734375 L 2.703125 -4.734375 L 2.703125 -4.390625 Z M 1.296875 -4.390625 "/></g></g></g><g fill="#ffffff" fill-opacity="1"><g transform="translate(52.910521, 40.234063)"><g><path d="M 2.859375 -4.828125 C 3.421875 -4.828125 3.878906 -4.65625 4.234375 -4.3125 C 4.585938 -3.96875 4.765625 -3.453125 4.765625 -2.765625 L 4.765625 0 L 4.375 0 L 4.375 -2.75 C 4.375 -3.3125 4.226562 -3.738281 3.9375 -4.03125 C 3.65625 -4.332031 3.273438 -4.484375 2.796875 -4.484375 C 2.273438 -4.484375 1.863281 -4.320312 1.5625 -4 C 1.257812 -3.675781 1.109375 -3.191406 1.109375 -2.546875 L 1.109375 0 L 0.71875 0 L 0.71875 -6.453125 L 1.109375 -6.453125 L 1.109375 -3.734375 C 1.242188 -4.085938 1.46875 -4.359375 1.78125 -4.546875 C 2.09375 -4.734375 2.453125 -4.828125 2.859375 -4.828125 Z M 2.859375 -4.828125 "/></g></g></g><g fill="#ffffff" fill-opacity="1"><g transform="translate(58.014527, 40.234063)"><g><path d="M 0.46875 -2.375 C 0.46875 -2.863281 0.566406 -3.289062 0.765625 -3.65625 C 0.960938 -4.019531 1.234375 -4.300781 1.578125 -4.5 C 1.921875 -4.695312 2.3125 -4.796875 2.75 -4.796875 C 3.25 -4.796875 3.671875 -4.671875 4.015625 -4.421875 C 4.367188 -4.179688 4.617188 -3.875 4.765625 -3.5 L 4.765625 -4.734375 L 5.15625 -4.734375 L 5.15625 0 L 4.765625 0 L 4.765625 -1.25 C 4.617188 -0.863281 4.367188 -0.546875 4.015625 -0.296875 C 3.671875 -0.0546875 3.25 0.0625 2.75 0.0625 C 2.3125 0.0625 1.921875 -0.0351562 1.578125 -0.234375 C 1.234375 -0.429688 0.960938 -0.710938 0.765625 -1.078125 C 0.566406 -1.453125 0.46875 -1.882812 0.46875 -2.375 Z M 4.765625 -2.375 C 4.765625 -2.78125 4.675781 -3.140625 4.5 -3.453125 C 4.332031 -3.773438 4.097656 -4.019531 3.796875 -4.1875 C 3.503906 -4.363281 3.175781 -4.453125 2.8125 -4.453125 C 2.425781 -4.453125 2.085938 -4.367188 1.796875 -4.203125 C 1.503906 -4.035156 1.273438 -3.796875 1.109375 -3.484375 C 0.953125 -3.171875 0.875 -2.800781 0.875 -2.375 C 0.875 -1.9375 0.953125 -1.5625 1.109375 -1.25 C 1.273438 -0.9375 1.503906 -0.695312 1.796875 -0.53125 C 2.085938 -0.363281 2.425781 -0.28125 2.8125 -0.28125 C 3.175781 -0.28125 3.503906 -0.363281 3.796875 -0.53125 C 4.097656 -0.707031 4.332031 -0.953125 4.5 -1.265625 C 4.675781 -1.585938 4.765625 -1.957031 4.765625 -2.375 Z M 4.765625 -2.375 "/></g></g></g><g fill="#ffffff" fill-opacity="1"><g transform="translate(63.554782, 40.234063)"><g><path d="M 1.296875 -4.390625 L 1.296875 -1.265625 C 1.296875 -0.910156 1.359375 -0.664062 1.484375 -0.53125 C 1.617188 -0.40625 1.847656 -0.34375 2.171875 -0.34375 L 2.703125 -0.34375 L 2.703125 0 L 2.109375 0 C 1.691406 0 1.382812 -0.09375 1.1875 -0.28125 C 1 -0.476562 0.90625 -0.804688 0.90625 -1.265625 L 0.90625 -4.390625 L 0.1875 -4.390625 L 0.1875 -4.734375 L 0.90625 -4.734375 L 0.90625 -5.9375 L 1.296875 -5.9375 L 1.296875 -4.734375 L 2.703125 -4.734375 L 2.703125 -4.390625 Z M 1.296875 -4.390625 "/></g></g></g><g fill="#ffffff" fill-opacity="1"><g transform="translate(66.250704, 40.234063)"><g/></g></g><g fill="#ffffff" fill-opacity="1"><g transform="translate(68.379501, 40.234063)"><g><path d="M 6.3125 -4.828125 C 6.851562 -4.828125 7.296875 -4.65625 7.640625 -4.3125 C 7.984375 -3.96875 8.15625 -3.453125 8.15625 -2.765625 L 8.15625 0 L 7.765625 0 L 7.765625 -2.75 C 7.765625 -3.3125 7.628906 -3.738281 7.359375 -4.03125 C 7.085938 -4.332031 6.71875 -4.484375 6.25 -4.484375 C 5.757812 -4.484375 5.363281 -4.316406 5.0625 -3.984375 C 4.769531 -3.648438 4.625 -3.160156 4.625 -2.515625 L 4.625 0 L 4.25 0 L 4.25 -2.75 C 4.25 -3.3125 4.113281 -3.738281 3.84375 -4.03125 C 3.570312 -4.332031 3.203125 -4.484375 2.734375 -4.484375 C 2.242188 -4.484375 1.847656 -4.316406 1.546875 -3.984375 C 1.253906 -3.648438 1.109375 -3.160156 1.109375 -2.515625 L 1.109375 0 L 0.71875 0 L 0.71875 -4.734375 L 1.109375 -4.734375 L 1.109375 -3.703125 C 1.242188 -4.078125 1.457031 -4.359375 1.75 -4.546875 C 2.050781 -4.734375 2.398438 -4.828125 2.796875 -4.828125 C 3.222656 -4.828125 3.59375 -4.710938 3.90625 -4.484375 C 4.21875 -4.265625 4.429688 -3.9375 4.546875 -3.5 C 4.648438 -3.9375 4.863281 -4.265625 5.1875 -4.484375 C 5.507812 -4.710938 5.882812 -4.828125 6.3125 -4.828125 Z M 6.3125 -4.828125 "/></g></g></g><g fill="#ffffff" fill-opacity="1"><g transform="translate(76.886233, 40.234063)"><g><path d="M 0.46875 -2.375 C 0.46875 -2.863281 0.566406 -3.289062 0.765625 -3.65625 C 0.960938 -4.019531 1.234375 -4.300781 1.578125 -4.5 C 1.921875 -4.695312 2.3125 -4.796875 2.75 -4.796875 C 3.25 -4.796875 3.671875 -4.671875 4.015625 -4.421875 C 4.367188 -4.179688 4.617188 -3.875 4.765625 -3.5 L 4.765625 -4.734375 L 5.15625 -4.734375 L 5.15625 0 L 4.765625 0 L 4.765625 -1.25 C 4.617188 -0.863281 4.367188 -0.546875 4.015625 -0.296875 C 3.671875 -0.0546875 3.25 0.0625 2.75 0.0625 C 2.3125 0.0625 1.921875 -0.0351562 1.578125 -0.234375 C 1.234375 -0.429688 0.960938 -0.710938 0.765625 -1.078125 C 0.566406 -1.453125 0.46875 -1.882812 0.46875 -2.375 Z M 4.765625 -2.375 C 4.765625 -2.78125 4.675781 -3.140625 4.5 -3.453125 C 4.332031 -3.773438 4.097656 -4.019531 3.796875 -4.1875 C 3.503906 -4.363281 3.175781 -4.453125 2.8125 -4.453125 C 2.425781 -4.453125 2.085938 -4.367188 1.796875 -4.203125 C 1.503906 -4.035156 1.273438 -3.796875 1.109375 -3.484375 C 0.953125 -3.171875 0.875 -2.800781 0.875 -2.375 C 0.875 -1.9375 0.953125 -1.5625 1.109375 -1.25 C 1.273438 -0.9375 1.503906 -0.695312 1.796875 -0.53125 C 2.085938 -0.363281 2.425781 -0.28125 2.8125 -0.28125 C 3.175781 -0.28125 3.503906 -0.363281 3.796875 -0.53125 C 4.097656 -0.707031 4.332031 -0.953125 4.5 -1.265625 C 4.675781 -1.585938 4.765625 -1.957031 4.765625 -2.375 Z M 4.765625 -2.375 "/></g></g></g><g fill="#ffffff" fill-opacity="1"><g transform="translate(82.426487, 40.234063)"><g><path d="M 1.296875 -4.390625 L 1.296875 -1.265625 C 1.296875 -0.910156 1.359375 -0.664062 1.484375 -0.53125 C 1.617188 -0.40625 1.847656 -0.34375 2.171875 -0.34375 L 2.703125 -0.34375 L 2.703125 0 L 2.109375 0 C 1.691406 0 1.382812 -0.09375 1.1875 -0.28125 C 1 -0.476562 0.90625 -0.804688 0.90625 -1.265625 L 0.90625 -4.390625 L 0.1875 -4.390625 L 0.1875 -4.734375 L 0.90625 -4.734375 L 0.90625 -5.9375 L 1.296875 -5.9375 L 1.296875 -4.734375 L 2.703125 -4.734375 L 2.703125 -4.390625 Z M 1.296875 -4.390625 "/></g></g></g><g fill="#ffffff" fill-opacity="1"><g transform="translate(85.122406, 40.234063)"><g><path d="M 1.296875 -4.390625 L 1.296875 -1.265625 C 1.296875 -0.910156 1.359375 -0.664062 1.484375 -0.53125 C 1.617188 -0.40625 1.847656 -0.34375 2.171875 -0.34375 L 2.703125 -0.34375 L 2.703125 0 L 2.109375 0 C 1.691406 0 1.382812 -0.09375 1.1875 -0.28125 C 1 -0.476562 0.90625 -0.804688 0.90625 -1.265625 L 0.90625 -4.390625 L 0.1875 -4.390625 L 0.1875 -4.734375 L 0.90625 -4.734375 L 0.90625 -5.9375 L 1.296875 -5.9375 L 1.296875 -4.734375 L 2.703125 -4.734375 L 2.703125 -4.390625 Z M 1.296875 -4.390625 "/></g></g></g><g fill="#ffffff" fill-opacity="1"><g transform="translate(87.818325, 40.234063)"><g><path d="M 4.984375 -2.6875 C 4.984375 -2.476562 4.976562 -2.320312 4.96875 -2.21875 L 0.875 -2.21875 C 0.882812 -1.789062 0.972656 -1.429688 1.140625 -1.140625 C 1.316406 -0.847656 1.546875 -0.628906 1.828125 -0.484375 C 2.117188 -0.335938 2.429688 -0.265625 2.765625 -0.265625 C 3.234375 -0.265625 3.625 -0.378906 3.9375 -0.609375 C 4.25 -0.835938 4.445312 -1.148438 4.53125 -1.546875 L 4.9375 -1.546875 C 4.84375 -1.066406 4.601562 -0.675781 4.21875 -0.375 C 3.84375 -0.0820312 3.359375 0.0625 2.765625 0.0625 C 2.328125 0.0625 1.929688 -0.03125 1.578125 -0.21875 C 1.234375 -0.414062 0.960938 -0.695312 0.765625 -1.0625 C 0.566406 -1.4375 0.46875 -1.875 0.46875 -2.375 C 0.46875 -2.863281 0.566406 -3.289062 0.765625 -3.65625 C 0.960938 -4.03125 1.234375 -4.3125 1.578125 -4.5 C 1.921875 -4.695312 2.316406 -4.796875 2.765625 -4.796875 C 3.222656 -4.796875 3.617188 -4.695312 3.953125 -4.5 C 4.285156 -4.3125 4.539062 -4.054688 4.71875 -3.734375 C 4.894531 -3.410156 4.984375 -3.0625 4.984375 -2.6875 Z M 4.59375 -2.53125 C 4.601562 -2.957031 4.523438 -3.3125 4.359375 -3.59375 C 4.191406 -3.882812 3.96875 -4.101562 3.6875 -4.25 C 3.40625 -4.394531 3.097656 -4.46875 2.765625 -4.46875 C 2.429688 -4.46875 2.125 -4.394531 1.84375 -4.25 C 1.5625 -4.101562 1.332031 -3.882812 1.15625 -3.59375 C 0.976562 -3.3125 0.882812 -2.957031 0.875 -2.53125 Z M 4.59375 -2.53125 "/></g></g></g><g fill="#ffffff" fill-opacity="1"><g transform="translate(92.93978, 40.234063)"><g><path d="M 1.109375 -3.75 C 1.222656 -4.101562 1.425781 -4.367188 1.71875 -4.546875 C 2.019531 -4.734375 2.398438 -4.828125 2.859375 -4.828125 L 2.859375 -4.421875 L 2.734375 -4.421875 C 2.265625 -4.421875 1.875 -4.285156 1.5625 -4.015625 C 1.257812 -3.753906 1.109375 -3.328125 1.109375 -2.734375 L 1.109375 0 L 0.71875 0 L 0.71875 -4.734375 L 1.109375 -4.734375 Z M 1.109375 -3.75 "/></g></g></g><g fill="#ffffff" fill-opacity="1"><g transform="translate(95.661872, 40.234063)"><g><path d="M 2.296875 0.0625 C 1.765625 0.0625 1.332031 -0.0507812 1 -0.28125 C 0.664062 -0.507812 0.476562 -0.835938 0.4375 -1.265625 L 0.84375 -1.265625 C 0.863281 -0.960938 1 -0.71875 1.25 -0.53125 C 1.507812 -0.351562 1.859375 -0.265625 2.296875 -0.265625 C 2.648438 -0.265625 2.929688 -0.351562 3.140625 -0.53125 C 3.359375 -0.71875 3.46875 -0.945312 3.46875 -1.21875 C 3.46875 -1.40625 3.410156 -1.554688 3.296875 -1.671875 C 3.179688 -1.796875 3.039062 -1.890625 2.875 -1.953125 C 2.707031 -2.015625 2.476562 -2.082031 2.1875 -2.15625 C 1.84375 -2.25 1.5625 -2.34375 1.34375 -2.4375 C 1.125 -2.53125 0.9375 -2.664062 0.78125 -2.84375 C 0.632812 -3.019531 0.5625 -3.257812 0.5625 -3.5625 C 0.5625 -3.78125 0.628906 -3.984375 0.765625 -4.171875 C 0.898438 -4.367188 1.085938 -4.519531 1.328125 -4.625 C 1.566406 -4.738281 1.835938 -4.796875 2.140625 -4.796875 C 2.628906 -4.796875 3.023438 -4.671875 3.328125 -4.421875 C 3.640625 -4.171875 3.804688 -3.832031 3.828125 -3.40625 L 3.4375 -3.40625 C 3.414062 -3.71875 3.289062 -3.972656 3.0625 -4.171875 C 2.84375 -4.367188 2.53125 -4.46875 2.125 -4.46875 C 1.789062 -4.46875 1.507812 -4.378906 1.28125 -4.203125 C 1.0625 -4.023438 0.953125 -3.8125 0.953125 -3.5625 C 0.953125 -3.34375 1.015625 -3.164062 1.140625 -3.03125 C 1.265625 -2.894531 1.421875 -2.789062 1.609375 -2.71875 C 1.796875 -2.644531 2.039062 -2.566406 2.34375 -2.484375 C 2.664062 -2.398438 2.925781 -2.3125 3.125 -2.21875 C 3.332031 -2.132812 3.503906 -2.015625 3.640625 -1.859375 C 3.785156 -1.703125 3.859375 -1.488281 3.859375 -1.21875 C 3.859375 -0.976562 3.789062 -0.757812 3.65625 -0.5625 C 3.519531 -0.363281 3.332031 -0.207031 3.09375 -0.09375 C 2.851562 0.0078125 2.585938 0.0625 2.296875 0.0625 Z M 2.296875 0.0625 "/></g></g></g></svg>